<?xml version="1.0" encoding="UTF-8" standalone="no"?>
<!DOCTYPE svg PUBLIC "-//W3C//DTD SVG 1.1//EN" "http://www.w3.org/Graphics/SVG/1.1/DTD/svg11.dtd">
<svg version="1.1" xmlns="http://www.w3.org/2000/svg" xmlns:xlink="http://www.w3.org/1999/xlink" preserveAspectRatio="xMidYMid meet" viewBox="0 0 640 640" width="640" height="640"><defs><path d="M585.53 305.84C597.28 317.59 597.28 336.59 585.53 348.22C561.24 372.52 366.94 566.92 342.66 591.22C330.91 602.97 311.91 602.97 300.28 591.22C275.98 566.92 81.58 372.52 57.28 348.22C45.53 336.47 45.53 317.47 57.28 305.84C60.06 303.07 82.26 280.87 85.03 278.09C96.91 266.22 116.28 266.47 127.91 278.59C137.47 288.64 185.31 338.84 271.41 429.22C271.41 213.67 271.41 93.92 271.41 69.97C271.41 53.34 284.78 39.97 301.41 39.97C305.41 39.97 337.41 39.97 341.41 39.97C358.03 39.97 371.41 53.34 371.41 69.97C371.41 93.92 371.41 213.67 371.41 429.22C457.51 338.84 505.34 288.64 514.91 278.59C526.53 266.34 545.91 266.09 557.78 278.09C563.33 283.64 582.76 303.07 585.53 305.84Z" id="bqOQoMkUn"></path></defs><g><g><g><use xlink:href="#bqOQoMkUn" opacity="1" fill="#ffffff" fill-opacity="1"></use><g><use xlink:href="#bqOQoMkUn" opacity="1" fill-opacity="0" stroke="#000000" stroke-width="1" stroke-opacity="0"></use></g></g></g></g></svg>